<svg xmlns="http://www.w3.org/2000/svg" viewBox="0 0 32 32" width="64px" height="64px">
  <rect fill="#1DA57A" x="12.5" y="3.5" width="6.95" height="2.07"/>
  <path fill="#1DA57A"
        d="M22.2,9a1.41,1.41,0,0,0,1.41-1.39V1.41A1.41,1.41,0,0,0,22.2,0a1.36,1.36,0,0,0-1.36,1.39V7.66A1.35,1.35,0,0,0,22.2,9Z"/>
  <path fill="#1DA57A"
        d="M9.71,9a1.41,1.41,0,0,0,1.41-1.39V1.41A1.41,1.41,0,0,0,9.71,0,1.36,1.36,0,0,0,8.34,1.41V7.66A1.38,1.38,0,0,0,9.71,9Z"/>
  <path fill="#1DA57A"
        d="M27.59,3.5H25V5.57h2.68A1.47,1.47,0,0,1,29.14,7v4.82H2.8V7A1.47,1.47,0,0,1,4.25,5.57H7V3.5H4.38A3.65,3.65,0,0,0,.75,7.15V28.3A3.62,3.62,0,0,0,4.34,32H27.62a3.65,3.65,0,0,0,3.63-3.65V7.15A3.67,3.67,0,0,0,27.59,3.5ZM8.28,27.79a2.09,2.09,0,1,1,2.09-2.09,2.1,2.1,0,0,1-2.09,2.09Zm0-7.66A2.09,2.09,0,1,1,10.41,18a2.1,2.1,0,0,1-2.09,2.09ZM16,27.79A2.09,2.09,0,1,1,18,25.7,2.1,2.1,0,0,1,16,27.79Zm0-7.66A2.09,2.09,0,1,1,18,18,2.1,2.1,0,0,1,16,20.13Zm7.63,0A2.09,2.09,0,1,1,25.68,18a2.1,2.1,0,0,1-2.09,2.09Zm0,0"/>
  <rect fill="#1DA57A" x="20.84" width="2.77" height="9.05"/>
  <rect fill="#1DA57A" x="8.34" width="2.77" height="9.05"/>
</svg>
