<svg xmlns="http://www.w3.org/2000/svg" viewBox="0 0 32 32" width="64px" height="64px">
  <path fill="#eee"
        d="M4.88,25.75H.82c-.6,0-.82-.22-.82-.81q0-3.83,0-7.67a3.66,3.66,0,0,1,3.63-3.7c.42,0,.84,0,1.29,0v-.41q0-4.88,0-9.75a1.85,1.85,0,0,1,2-2H19.53a4.77,4.77,0,0,1,3.41,1.39q1.38,1.33,2.73,2.7a4.71,4.71,0,0,1,1.41,3.35c0,1.45,0,2.91,0,4.36v.39h1.21a3.68,3.68,0,0,1,3.6,2.81,4.38,4.38,0,0,1,.1,1c0,2.52,0,5,0,7.57,0,.6-.22.82-.82.82h-4.1c0,1,0,1.95,0,2.91a1.93,1.93,0,0,1-.37,1.23,1.87,1.87,0,0,1-1.57.74H7a1.85,1.85,0,0,1-2-2q0-1.38,0-2.76s0,0,0-.09h0ZM24.6,8.68h-3a1.88,1.88,0,0,1-1.6-.76,2,2,0,0,1-.36-1.24c0-.95,0-1.9,0-2.86H7.4V16H24.6c0-2.44,0-4.85,0-7.3h0Zm0,14.65H7.41v4.84H24.6V23.33ZM28.3,16a1.22,1.22,0,1,0,1.23,1.23A1.24,1.24,0,0,0,28.3,16h0Z"/>
</svg>
