<svg xmlns="http://www.w3.org/2000/svg" viewBox="0 0 32 32" width="64px" height="64px">
  <path fill="#1DA57A"
        d="M26.93.74A2.59,2.59,0,0,0,25.13,0H2.68A2.55,2.55,0,0,0,.12,2.56V26.71a2.57,2.57,0,0,0,2.56,2.57H16L27.69,10.51v-8A2.57,2.57,0,0,0,26.93.74ZM14.16,20.45h-8V18h8Zm4-6h-12V12h12Zm2-6h-14V6h14Z"/>
  <rect fill="#1DA57A" x="29.35" y="12.5" width="1.78" height="3.05" transform="translate(2.32 32.24) rotate(-58)"/>
  <polygon fill="#1DA57A" points="18.66 29.67 19 32 21.25 31.28 30.83 15.95 28.24 14.34 18.66 29.67"/>
</svg>
