<svg viewBox="0 0 1024 1024" version="1.1" xmlns="http://www.w3.org/2000/svg" width="64" height="64">
  <path fill="#ffffff"
    d="M761.486 318.181c0-141.165-111.957-255.561-250.751-255.561-138.704 0-250.661 114.396-250.661 255.561 0 99.781 58.418 187.409 141.144 228.772 2.484 2.44 2.484 4.855 0 7.318-163.057 48.66-284.726 202.001-284.726 384.531 0 9.737 16.987 19.473 26.747 19.473 9.758 0 26.792-9.737 26.792-21.892 14.592-204.464 141.144-318.837 328.55-360.2 12.155-2.463 26.747-4.879 41.386-4.879 126.549-9.735 221.519-119.276 221.519-253.123zM510.735 517.743c-109.518 0-199.562-90.044-199.562-202.001s90.044-202.001 199.562-202.001c109.563 0 199.606 90.044 199.606 202.001s-90.043 202.001-199.606 202.001z m197.167 73.012c-7.321-4.858-26.792 2.463-31.626 12.176-4.879 9.737-4.879 26.768 2.394 31.65 111.957 65.713 177.693 175.23 177.693 304.221 0 9.737 14.594 19.473 24.352 19.473 9.713 0 26.792-9.737 26.792-19.473 0.002-143.582-77.887-277.452-199.605-348.047z m0 0"
    ></path>
</svg>
