<?xml version="1.0" standalone="no"?><!DOCTYPE svg PUBLIC "-//W3C//DTD SVG 1.1//EN"
  "http://www.w3.org/Graphics/SVG/1.1/DTD/svg11.dtd">
<svg class="icon" width="32px" height="27.89px" viewBox="0 0 1175 1024" version="1.1"
     xmlns="http://www.w3.org/2000/svg">
  <path
    d="M87.446326 220.7867L882.770134 3.95948a117.268917 117.268917 0 0 1 144.030285 84.614034l142.226148 539.527224a119.884916 119.884916 0 0 1-83.291 146.586146L290.411759 991.544173a117.268917 117.268917 0 0 1-144.030285-84.644102L4.155326 367.372846A119.884916 119.884916 0 0 1 87.446326 220.7867z"
    fill="#B0AFFF"/>
  <path
    d="M60.384268 240.722416m180.413719 0l691.58592 0q180.413718 0 180.413718 180.413718l0 420.965343q0 180.413718-180.413718 180.413718l-691.58592 0q-180.413718 0-180.413719-180.413718l0-420.965343q0-180.413718 180.413719-180.413718Z"
    fill="#8A6DFF"/>
  <path
    d="M703.559174 812.032524c-5.111722-68.436937-55.026184-129.296498-88.102032-162.191933A156.508901 156.508901 0 0 1 728.516405 601.549853h16.838614A156.959935 156.959935 0 0 1 902.314954 758.389512V812.032524h-198.75578z m33.977917-252.188309a84.403551 84.403551 0 1 1 82.689621-84.373483 83.501483 83.501483 0 0 1-82.689621 84.373483z"
    fill="#D0C5FF"/>
  <path
    d="M210.729034 872.17043v-44.502051A196.079643 196.079643 0 0 1 406.778607 631.618806h58.935148A196.079643 196.079643 0 0 1 661.763329 827.668379V872.17043H210.729034z m225.517147-270.620577a105.241336 105.241336 0 1 1 105.241336-105.241336 105.241336 105.241336 0 0 1-105.241336 105.241336z"
    fill="#FFFFFF"/>
</svg>
