<?xml version="1.0" standalone="no"?><!DOCTYPE svg PUBLIC "-//W3C//DTD SVG 1.1//EN" "http://www.w3.org/Graphics/SVG/1.1/DTD/svg11.dtd"><svg class="icon" width="32px" height="32.00px" viewBox="0 0 1024 1024" version="1.1" xmlns="http://www.w3.org/2000/svg"><path fill="#ffffff" d="M906.112 447.744H118.144c-18.176 0-32.768-14.592-32.768-32.768 0-18.176 14.592-32.768 32.768-32.768h787.968c18.176 0 32.768 14.592 32.768 32.768 0 18.176-14.72 32.768-32.768 32.768z m-624.128-207.36c-18.176 0-32.768-14.592-32.768-32.768V87.808c0-18.176 14.592-32.768 32.768-32.768 18.176 0 32.768 14.592 32.768 32.768v119.808c0 18.176-14.72 32.768-32.768 32.768z m458.752 0c-18.176 0-32.768-14.592-32.768-32.768V87.808c0-18.176 14.592-32.768 32.768-32.768 18.176 0 32.768 14.592 32.768 32.768v119.808c0 18.176-14.72 32.768-32.768 32.768zM904.32 251.392l0.128 654.08-0.128 0.128H118.144l-0.128-0.128v-654.08l0.128-0.128h786.176v0.128z m0.256-65.536H118.016c-36.096 0-65.536 29.44-65.536 65.536v654.208c0 36.096 29.44 65.536 65.536 65.536h786.432c36.096 0 65.536-29.44 65.536-65.536V251.392c0.128-35.968-29.44-65.536-65.408-65.536M447.36 840.704c-8.32 0-16.64-3.2-23.04-9.472L269.184 678.272c-12.928-12.672-13.056-33.536-0.256-46.336 12.672-12.928 33.536-13.056 46.336-0.256l131.968 130.304 261.376-259.328c12.8-12.8 33.536-12.672 46.336 0.256 12.8 12.8 12.672 33.536-0.256 46.336L470.4 831.232c-6.4 6.4-14.72 9.472-23.04 9.472z" /></svg>