<?xml version="1.0" standalone="no"?><!DOCTYPE svg PUBLIC "-//W3C//DTD SVG 1.1//EN"
  "http://www.w3.org/Graphics/SVG/1.1/DTD/svg11.dtd">
<svg class="icon" width="32px" height="32.00px" viewBox="0 0 1024 1024" version="1.1"
     xmlns="http://www.w3.org/2000/svg">
  <path fill="#ffffff"
        d="M805.13 126.3H218.87c-84.87 0-154.28 69.43-154.28 154.28v462.84c0 84.85 69.43 154.28 154.28 154.28h586.26c84.86 0 154.28-69.43 154.28-154.28V280.58c0-84.85-69.42-154.28-154.28-154.28z m92.57 617.12c0 50.91-41.65 92.57-92.57 92.57H218.87c-50.91 0-92.57-41.66-92.57-92.57V280.58c0-50.91 41.7-92.58 92.57-92.58h586.26c50.92 0 92.57 41.66 92.57 92.57z m0 0"/>
  <path fill="#ffffff"
        d="M783 481.14H628.68a30.86 30.86 0 1 0 0 61.72H783a30.86 30.86 0 0 0 0-61.72z m0-154.28H597.82a30.86 30.86 0 0 0 0 61.72H783a30.86 30.86 0 0 0 0-61.72z m0 308.56H659.53a30.86 30.86 0 0 0 0 61.72H783a30.86 30.86 0 0 0 0-61.72z m-532-121.6c8 0 14.18-6.21 14.18-6.21a233.48 233.48 0 0 0-1.77-25.71 219.45 219.45 0 0 0-7.09-35.46c1.77-1.77 3.54-4.43 3.54-7.09a8.52 8.52 0 0 0-6.2-8v-13.3l-4.44-2.66v16a8.52 8.52 0 0 0-6.2 8c0 3.54 0.88 5.32 3.54 7.09-2.66 9.75-9.75 38.12-9.75 61.17-0.04-0.04 6.19 6.17 14.19 6.17z m25.71-11.53V512c0.88 8.87 3.54 17.73 9.75 25.71 3.55 4.44 5.32 4.44 10.64 2.66 1.77 0 4.43 8 5.32 9.76 6.2 14.18 16.84 31 36.34 38.12a67.45 67.45 0 0 0 41.63 2.75c14.19-4.44 25.71-14.19 34.58-26.6 8-10.64 10.64-17.73 12.41-20.39 0.88-0.89 0.88-2.66 1.77-2.66s2.66 0.89 3.55 0.89c2.66 0 4.43-1.78 6.2-3.55a50.39 50.39 0 0 0 9.75-25.71v-9.75c0-5.32-3.54-9.75-9.75-9.75h-0.9l-0.89-1.78s0-4.43 0.89-6.2a186.18 186.18 0 0 1 1.77-22.17c0-2.65 0.89-6.2 0.89-8.86l-18.62-5.32c-0.89 0-8.87-1.77-8.87-1.77-4.43-0.89-30.14-2.66-55-3.55-19.51 0-38.12 1.77-42.56 2.66-1.77 0-4.43 0.89-5.31 0.89 0 0-14.19 2.66-19.51 5.32l-5.32 1.77c0 7.09 0.89 14.18 0.89 21.28 0 5.32 0.89 11.52 0.89 16.84h-0.89c-6.15-0.05-8.81 5.27-9.69 9.7z m29.25-15.07c16 0 30.14-0.88 42.56-3.54 4.43-0.89 9.75-1.78 15.07-2.66a99 99 0 0 0 39-17.74c5.32 6.21 12.42 11.53 23.06 16h0.88v4.44c-0.88 14.18-2.66 32.8-5.32 42.55-2.7 11.48-22.21 57.58-60.32 56.73-6.21 0-12.41-1.78-17.73-3.55-19.51-6.24-30.16-24.85-38.16-49.68q-5.32-15.94-5.32-37.23c0-2.66 0-6.2-0.89-8.86 2.7 3.54 5.36 3.54 7.13 3.54z m16.85-50.53c3.54-0.89 17.73-1.77 31-1.77 12.41 0 24.82 0 38.12 0.88 8.86 0.89 18.61 1.77 27.48 3.55a16.44 16.44 0 0 1 6.21 1.77l12.38 3.55c0-6.21 0-18.62-0.89-23.94 0-5.32 0-2.66-0.89-8-0.88-2.66-0.88-4.43-3.54-5.32a36.19 36.19 0 0 0-8-4.43c-7.09-3.55-14.19-6.2-22.17-7.09a194.34 194.34 0 0 0-50.51-3.53 171.39 171.39 0 0 0-21.27 1.78c-11.53 1.77-23.05 4.43-33.69 10.63-3.55 0.89-6.21 2.66-7.09 7.1-2.66 10.64-2.66 20.39-2.66 31v0.89a76.65 76.65 0 0 1 20.39-5.32 77.77 77.77 0 0 1 15.09-1.75zM540 700.88c-0.89-6.21-1.78-13.3-4.44-19.51a108.2 108.2 0 0 0-15.07-25.71 134.9 134.9 0 0 0-31-27.48c-19.56-13.3-67.43-30.18-69.2-30.18a5.4 5.4 0 0 0-6.21 2.66c-0.89 0-15.07 30.14-16.84 33.69a3.1 3.1 0 0 1-0.89 1.77l-1.77-1.77c-1.78-2.66-4.44-7.1-7.1-10.64a63.65 63.65 0 0 0-6.2-8.87c-2.66-3.54-5.32-5.32-8.87-5.32-2.66 0-6.2 1.78-8.86 4.44 0 0.88-0.89 0.88-1.77 1.77L360 614c-1.77-1.78-4.43-4.44-8.86-4.44s-7.1 2.66-8.87 5.32a18.36 18.36 0 0 1-3.55 5.32 81.31 81.31 0 0 0-8.86 11.53 19.53 19.53 0 0 1-4.43 3.54 10.8 10.8 0 0 1-1.78-2.66c-3.54-8-8.86-20.39-11.52-27.48-2.66-4.43-2.66-4.43-2.66-5.32a5.42 5.42 0 0 0-6.21-2.66c-0.88 0-49.64 16.85-69.15 30.14-24.82 16-35.46 36.35-40.78 51.42A98.41 98.41 0 0 0 188 708c0 2.66 2.66 5.32 6.21 5.32h340.44c1.77 0 4.43-1.78 5.32-2.66 0.88-2.66 0.03-8.9 0.03-9.78zM233.23 404.77c6.2 4.44 45.21 26.6 45.21 26.6a7.56 7.56 0 0 0 6.21 0c1.77-1.77 2.66-3.55 2.66-5.32a79.42 79.42 0 0 1 1.77-16c1.77-5.32 4.43-7.09 8.86-9.75 9.76-5.32 20.39-8.86 34.58-10.64 6.2-0.88 28.37-1.77 31.91-1.77 14.19 0 27.49 0.89 39.9 3.55a94.36 94.36 0 0 1 22.16 8c1.77 0.89 5.32 3.55 8 5.32s3.55 3.55 4.43 7.1a54.29 54.29 0 0 1 0.89 11.52v3.55q0 4 2.66 5.32a3.26 3.26 0 0 0 2.66 0.88 6.73 6.73 0 0 0 3.54-0.88s31.92-18.62 46.1-26.6a5 5 0 0 0 0-8.86l-0.88-0.89a18.7 18.7 0 0 0-5.32-3.55c-12.41-7.09-23.94-14.18-36.35-21.27-26.59-15.07-54.08-31-80.67-46.1-5.32-3.55-10.64-3.55-16.85 0-31 16.84-61.17 34.57-91.31 51.41-8 5.32-16.85 9.76-24.82 14.19-1.78 0.89-3.55 2.66-5.32 3.55-0.89 0.88-1.78 0.88-2.66 1.77-1.77 0.89-2.66 3.54-2.66 5.32s0.87 3.55 5.3 3.55z m102 103.73a5.32 5.32 0 1 0-5.32-5.32 5.32 5.32 0 0 0 5.27 5.32z m55 0a5.32 5.32 0 1 0-5.32-5.32 5.32 5.32 0 0 0 5.23 5.32z m-10.64 47a54.64 54.64 0 0 1-33.68 0s8 5.32 16.84 5.32 16.75-5.34 16.75-5.34z"/>
</svg>
