<?xml version="1.0" standalone="no"?><!DOCTYPE svg PUBLIC "-//W3C//DTD SVG 1.1//EN"
  "http://www.w3.org/Graphics/SVG/1.1/DTD/svg11.dtd">
<svg class="icon" width="32px" height="32.00px" viewBox="0 0 1024 1024" version="1.1"
     xmlns="http://www.w3.org/2000/svg">
  <path fill="#ffffff"
        d="M919.7568 22.7328H104.2432C55.296 22.7328 22.7328 63.488 22.7328 120.6272v782.9504c0 57.1392 32.5632 97.8944 81.5104 97.8944h815.5136c48.9472 0 81.5104-40.7552 81.5104-97.8944V120.6272c0-57.1392-32.5632-97.8944-81.5104-97.8944z m-269.1072 203.776v195.7888H365.1584v-195.7888h285.4912z m-285.4912 481.28V463.0528h285.4912v244.736H365.1584z m285.4912 40.7552V952.32H365.1584v-203.9808h285.4912zM63.488 226.5088h260.9152v195.7888H63.488v-195.7888z m0 236.544h260.9152v244.736H63.488V463.0528z m0 391.5776v-106.0864h260.9152V952.32H144.9984C96.0512 952.32 63.488 911.5648 63.488 854.6304z m897.024 0c0 57.1392-32.5632 97.8944-81.5104 97.8944h-187.5968v-203.9808H960.512v106.0864z m0-146.8416H691.4048V463.0528H960.512v244.736z m0-285.4912H691.4048v-195.7888H960.512v195.7888z m0 0"/>
</svg>
