<?xml version="1.0" standalone="no"?><!DOCTYPE svg PUBLIC "-//W3C//DTD SVG 1.1//EN"
  "http://www.w3.org/Graphics/SVG/1.1/DTD/svg11.dtd">
<svg class="icon" width="32px" height="32.00px" viewBox="0 0 1024 1024" version="1.1"
     xmlns="http://www.w3.org/2000/svg">
  <path fill="#ffffff"
        d="M949.662087 196.1114H829.789825V99.52915c0-44.013368-22.339398-89.547716-66.352766-89.547717H284.518381c-44.013368 0-92.589677 45.534348-92.589677 89.547717v96.58225h-93.730412c-44.013368 0-92.399554 45.724471-92.399555 89.737839v292.598589c0 44.013368 48.386186 69.489788 92.399555 69.489788h93.635351v298.397326c0 44.013368 48.576309 69.204605 92.589677 69.204605H763.341998c44.013368 0 66.447828-25.191237 66.447827-69.204605V647.937616H949.662087c44.013368 0 67.39844-25.47642 67.39844-69.489788V285.754177c0-44.013368-23.385072-89.642778-67.39844-89.642777M247.72967 99.719272c0-14.449313 24.525808-37.073895 39.070181-37.073895h474.165615c14.544374 0 13.118455 22.529521 13.118455 37.073895v95.631638H247.72967V99.719272m526.25919 834.447828c0 14.544374-11.407352 27.092462-25.951727 27.092462H273.871519c-14.544374 0-26.141849-12.453026-26.141849-27.092462V543.655403c0-14.544374 11.597475-26.331972 26.141849-26.331972h474.165614c14.544374 0 25.951727 11.787597 25.951727 26.331972v390.511697M958.217601 576.926847c0 14.449313 1.616042 16.160416-12.928333 16.160416H826.652804v-42.587449c0-43.538062-22.244337-88.977349-65.782399-88.977348H286.799851c-43.633123 0-91.734126 45.439287-91.734125 88.977348v42.587449h-92.684738c-14.544374 0-38.880059-1.711103-38.88006-16.160416V287.180097c0-14.449313 24.335685-36.123283 38.88006-36.123283h842.90828c14.449313 0 12.928333 21.578908 12.928333 36.123283v289.74675m-258.376532 55.991088H327.295952c-7.034534-0.095061-13.783884 2.566654-18.72707 7.414779-5.038247 4.848125-7.795024 11.597475-7.890085 18.536948 0 14.734497 11.882659 26.046788 26.617155 26.046788h372.545117c14.734497 0 26.522094-11.312291 26.522095-26.046788 0-7.034534-2.851838-13.688823-7.795024-18.536948-4.943186-4.848125-11.692536-7.50984-18.727071-7.414779m0 153.809135H327.295952c-9.506127 0-18.251764 5.038247-23.004827 13.308578-4.753063 8.175269-4.753063 18.346825 0 26.522094s13.4987 13.308578 23.004827 13.308578h372.545117c9.506127 0 18.251764-5.038247 23.004828-13.308578 4.753063-8.175269 4.753063-18.346825 0-26.522094-4.753063-8.27033-13.4987-13.308578-23.004828-13.308578m122.153732-471.408838c0 21.578908 17.491274 39.165243 39.165244 39.165244 21.578908 0 39.165243-17.491274 39.165243-39.165244s-17.491274-39.165243-39.165243-39.165243c-21.578908 0-39.165243 17.491274-39.165244 39.165243"/>
</svg>
