<?xml version="1.0" standalone="no"?><!DOCTYPE svg PUBLIC "-//W3C//DTD SVG 1.1//EN"
  "http://www.w3.org/Graphics/SVG/1.1/DTD/svg11.dtd">
<svg class="icon" width="32px" height="32.00px" viewBox="0 0 1024 1024" version="1.1"
     xmlns="http://www.w3.org/2000/svg">
  <path fill="#ffffff"
        d="M130.469 843.724C105.982 831.66 115.757 726.488 115.757 682V198.625h724.12v384.108c27.173 7.874 49.542 23.488 71.683 36.767V261.114c0-57.156 6.388-125.419-16.549-159.908-34.906-52.444-104.645-47.768-192.986-47.768H282.997c-68.37 0-154.658-8.891-194.812 20.208-49.004 35.538-44.1 105.62-44.1 191.146v422.715c1.01 137.066-3.409 149.777 22.044 192.963 33.326 56.511 81.954 38.681 389.637 40.434-13.066-22.186-34.563-41.337-40.434-69.834-73.726-2.98-262.195 3.817-284.863-7.346zM297.711 343.82h-71.674v71.673h71.674V343.82z m433.726 0H369.382v71.673h362.055V343.82zM297.711 489.015h-71.674v69.836h71.674v-69.836z m71.671 69.836h362.055v-69.836H369.382v69.836zM226.037 704.034h71.674v-71.673h-71.674v71.673z m305.068-67.984c0.624-1.225 1.227-2.453 1.851-3.689H369.382v71.673h90.063c15.173-23.484 45.531-56.176 71.66-67.984z m409.854 108.408c-46.144-57.833-118.15-112.022-222.384-110.257-20.82 4.278-41.67 8.57-62.479 12.871-67.543 23.905-149.83 86.395-174.597 152.54-12.485 33.315 23.615 62.415 36.745 79.019 36.95 46.725 133.765 129.065 227.914 113.956 84.932-13.636 229.729-99.633 238.913-176.436 3.323-27.895-31.529-55.906-44.112-71.693zM663.441 898.849c-75.469-57.728-35.788-193.996 67.996-192.974-0.419 27.357-4.958 69.856 5.517 88.222 12.185 25.787 65.028 19.625 102.923 18.368 1.558 89.835-104.634 141.302-176.436 86.384z"/>
</svg>
